<svg width="21" height="20" viewBox="0 0 21 20" fill="none" xmlns="http://www.w3.org/2000/svg">
<path d="M9.4459 1.01262C5.03757 1.49179 1.49174 5.03762 1.01257 9.35012C0.533403 13.8543 3.1209 17.8793 7.05007 19.4126C7.33757 19.5085 7.62507 19.3168 7.62507 18.9335V17.4001C7.62507 17.4001 7.24174 17.496 6.76257 17.496C5.4209 17.496 4.8459 16.346 4.75007 15.6751C4.65424 15.2918 4.46257 15.0043 4.17507 14.7168C3.88757 14.621 3.79174 14.621 3.79174 14.5251C3.79174 14.3335 4.07924 14.3335 4.17507 14.3335C4.75007 14.3335 5.22924 15.0043 5.4209 15.2918C5.90007 16.0585 6.47507 16.2501 6.76257 16.2501C7.1459 16.2501 7.4334 16.1543 7.62507 16.0585C7.7209 15.3876 8.0084 14.7168 8.5834 14.3335C6.37924 13.8543 4.75007 12.6085 4.75007 10.5001C4.75007 9.44595 5.22924 8.39179 5.90007 7.62512C5.80424 7.43345 5.7084 6.95429 5.7084 6.28345C5.7084 5.90012 5.7084 5.32512 5.9959 4.75012C5.9959 4.75012 7.33757 4.75012 8.67924 5.99595C9.1584 5.80429 9.82924 5.70845 10.5001 5.70845C11.1709 5.70845 11.8417 5.80429 12.4167 5.99595C13.6626 4.75012 15.1001 4.75012 15.1001 4.75012C15.2917 5.32512 15.2917 5.90012 15.2917 6.28345C15.2917 7.05012 15.1959 7.43345 15.1001 7.62512C15.7709 8.39179 16.2501 9.35012 16.2501 10.5001C16.2501 12.6085 14.6209 13.8543 12.4167 14.3335C12.9917 14.8126 13.3751 15.6751 13.3751 16.5376V19.0293C13.3751 19.3168 13.6626 19.6043 14.0459 19.5085C17.5917 18.071 20.0834 14.621 20.0834 10.596C20.0834 4.84595 15.1959 0.341787 9.4459 1.01262Z" fill="#0F0A0A"/>
</svg>
