<svg width="18" height="19" viewBox="0 0 18 19" fill="none" xmlns="http://www.w3.org/2000/svg">
<path d="M5 0.00390625C2.239 0.00390625 0 2.24291 0 5.00391V13.0039C0 15.7649 2.239 18.0039 5 18.0039H13C15.761 18.0039 18 15.7649 18 13.0039V5.00391C18 2.24291 15.761 0.00390625 13 0.00390625H5ZM15 2.00391C15.552 2.00391 16 2.45191 16 3.00391C16 3.55591 15.552 4.00391 15 4.00391C14.448 4.00391 14 3.55591 14 3.00391C14 2.45191 14.448 2.00391 15 2.00391ZM9 4.00391C11.761 4.00391 14 6.24291 14 9.00391C14 11.7649 11.761 14.0039 9 14.0039C6.239 14.0039 4 11.7649 4 9.00391C4 6.24291 6.239 4.00391 9 4.00391ZM9 6.00391C8.20435 6.00391 7.44129 6.31998 6.87868 6.88259C6.31607 7.44519 6 8.20826 6 9.00391C6 9.79956 6.31607 10.5626 6.87868 11.1252C7.44129 11.6878 8.20435 12.0039 9 12.0039C9.79565 12.0039 10.5587 11.6878 11.1213 11.1252C11.6839 10.5626 12 9.79956 12 9.00391C12 8.20826 11.6839 7.44519 11.1213 6.88259C10.5587 6.31998 9.79565 6.00391 9 6.00391Z" fill="#0F0A0A"/>
</svg>
