<svg width="18" height="19" viewBox="0 0 18 19" fill="none" xmlns="http://www.w3.org/2000/svg">
<path d="M17.023 12.4919C16.393 12.4769 15.6 12.4399 15.099 12.3519C14.557 12.2559 13.905 12.0699 13.446 11.9269C13.086 11.8149 12.694 11.9139 12.427 12.1799L10.21 14.3839C8.678 13.5769 7.451 12.6369 6.412 11.5919C5.367 10.5529 4.427 9.32591 3.62 7.79391L5.824 5.57591C6.09 5.30891 6.189 4.91691 6.077 4.55691C5.935 4.09891 5.748 3.44691 5.653 2.90491C5.564 2.40391 5.528 1.61091 5.512 0.980906C5.499 0.435906 5.055 0.00390625 4.51 0.00390625H1C0.562 0.00390625 0 0.331906 0 1.00391C0 5.54291 1.84 9.87791 4.966 13.0379C8.126 16.1639 12.461 18.0039 17 18.0039C17.672 18.0039 18 17.4419 18 17.0039V13.4939C18 12.9489 17.568 12.5049 17.023 12.4919Z" fill="#0F0A0A"/>
</svg>
