<svg width="20" height="17" viewBox="0 0 20 17" fill="none" xmlns="http://www.w3.org/2000/svg">
<path d="M20 0.00292969C19.22 0.46593 17.655 1.09693 16.735 1.27893C16.708 1.28593 16.686 1.29493 16.66 1.30193C15.847 0.499929 14.733 0.00292969 13.5 0.00292969C11.015 0.00292969 9 2.01793 9 4.50293C9 4.63393 8.989 4.87493 9 5.00293C5.647 5.00293 3.095 3.24693 1.265 1.00293C1.066 1.50293 0.979 2.29293 0.979 3.03493C0.979 4.43593 2.074 5.81193 3.779 6.66493C3.465 6.74593 3.119 6.80393 2.759 6.80393C2.178 6.80393 1.563 6.65093 1 6.18693C1 6.20393 1 6.21993 1 6.23793C1 8.19593 3.078 9.52893 4.926 9.89993C4.551 10.1209 3.795 10.1429 3.426 10.1429C3.166 10.1429 2.246 10.0239 2 9.97793C2.514 11.5829 4.368 12.4849 6.135 12.5169C4.753 13.6009 3.794 14.0029 0.964 14.0029H0C1.788 15.1489 4.065 16.0039 6.347 16.0039C13.777 16.0039 18 10.3409 18 5.00293C18 4.91693 17.998 4.73693 17.995 4.55593C17.995 4.53793 18 4.52093 18 4.50293C18 4.47593 17.992 4.44993 17.992 4.42293C17.989 4.28693 17.986 4.15993 17.983 4.09393C18.773 3.52393 19.458 2.81293 20 2.00293C19.275 2.32493 18.497 2.54093 17.68 2.63893C18.514 2.13893 19.699 0.94693 20 0.00292969Z" fill="#0F0A0A"/>
</svg>
